<svg xmlns="http://www.w3.org/2000/svg" xmlns:xlink="http://www.w3.org/1999/xlink" width="500" zoomAndPan="magnify" viewBox="0 0 375 374.999991" height="500" preserveAspectRatio="xMidYMid meet" version="1.0"><defs><g/><clipPath id="00c122d1d6"><path d="M 91.03125 91.03125 L 283.96875 91.03125 L 283.96875 283.96875 L 91.03125 283.96875 Z M 91.03125 91.03125 " clip-rule="nonzero"/></clipPath><clipPath id="6e4545bda0"><path d="M 187.5 283.96875 C 161.742188 283.96875 137.492188 273.945312 119.292969 255.707031 C 101.054688 237.507812 91.03125 213.257812 91.03125 187.5 C 91.03125 161.742188 101.054688 137.492188 119.292969 119.292969 C 137.492188 101.054688 161.742188 91.03125 187.5 91.03125 C 213.257812 91.03125 237.507812 101.054688 255.707031 119.292969 C 273.945312 137.53125 283.96875 161.742188 283.96875 187.5 C 283.96875 213.257812 273.945312 237.507812 255.707031 255.707031 C 237.507812 273.945312 213.257812 283.96875 187.5 283.96875 Z M 187.5 96.8125 C 163.285156 96.8125 140.5 106.261719 123.378906 123.378906 C 106.261719 140.5 96.8125 163.285156 96.8125 187.5 C 96.8125 211.714844 106.261719 234.5 123.378906 251.621094 C 140.5 268.738281 163.285156 278.1875 187.5 278.1875 C 211.714844 278.1875 234.5 268.738281 251.621094 251.621094 C 268.738281 234.5 278.1875 211.714844 278.1875 187.5 C 278.1875 163.285156 268.738281 140.5 251.621094 123.378906 C 234.5 106.261719 211.714844 96.8125 187.5 96.8125 Z M 187.5 96.8125 " clip-rule="nonzero"/></clipPath><clipPath id="dfd9463151"><path d="M 111.347656 189.039062 L 125.554688 189.039062 L 125.554688 203.246094 L 111.347656 203.246094 Z M 111.347656 189.039062 " clip-rule="nonzero"/></clipPath><clipPath id="29b3405b24"><path d="M 118.449219 189.039062 C 114.527344 189.039062 111.347656 192.21875 111.347656 196.144531 C 111.347656 200.066406 114.527344 203.246094 118.449219 203.246094 C 122.375 203.246094 125.554688 200.066406 125.554688 196.144531 C 125.554688 192.21875 122.375 189.039062 118.449219 189.039062 Z M 118.449219 189.039062 " clip-rule="nonzero"/></clipPath><clipPath id="9a9f79920f"><path d="M 249.445312 189.039062 L 263.652344 189.039062 L 263.652344 203.246094 L 249.445312 203.246094 Z M 249.445312 189.039062 " clip-rule="nonzero"/></clipPath><clipPath id="736c368ac7"><path d="M 256.550781 189.039062 C 252.625 189.039062 249.445312 192.21875 249.445312 196.144531 C 249.445312 200.066406 252.625 203.246094 256.550781 203.246094 C 260.472656 203.246094 263.652344 200.066406 263.652344 196.144531 C 263.652344 192.21875 260.472656 189.039062 256.550781 189.039062 Z M 256.550781 189.039062 " clip-rule="nonzero"/></clipPath><clipPath id="d3059951b3"><path d="M 173 125.355469 L 198 125.355469 L 198 150 L 173 150 Z M 173 125.355469 " clip-rule="nonzero"/></clipPath></defs><g clip-path="url(#00c122d1d6)"><g clip-path="url(#6e4545bda0)"><path fill="#00529c" d="M 91.03125 91.03125 L 283.96875 91.03125 L 283.96875 283.96875 L 91.03125 283.96875 Z M 91.03125 91.03125 " fill-opacity="1" fill-rule="nonzero"/></g></g><g clip-path="url(#dfd9463151)"><g clip-path="url(#29b3405b24)"><path fill="#04383f" d="M 111.347656 189.039062 L 125.554688 189.039062 L 125.554688 203.246094 L 111.347656 203.246094 Z M 111.347656 189.039062 " fill-opacity="1" fill-rule="nonzero"/></g></g><g clip-path="url(#9a9f79920f)"><g clip-path="url(#736c368ac7)"><path fill="#04383f" d="M 249.445312 189.039062 L 263.652344 189.039062 L 263.652344 203.246094 L 249.445312 203.246094 Z M 249.445312 189.039062 " fill-opacity="1" fill-rule="nonzero"/></g></g><g fill="#04383f" fill-opacity="1"><g transform="translate(132.155628, 147.833624)"><g><path d="M 5.234375 -9.671875 L 1.140625 -5.125 L 2.375 -2.65625 L -0.0625 0.0625 L -6.4375 -13.78125 L -4 -16.5 L 10.359375 -11.53125 L 7.828125 -8.703125 Z M 2.53125 -10.71875 L -2.65625 -12.671875 L -0.15625 -7.71875 Z M 2.53125 -10.71875 "/></g></g></g><g fill="#04383f" fill-opacity="1"><g transform="translate(144.145532, 135.007599)"><g><path d="M -6.578125 -12.4375 L -1.078125 -16.09375 C 0.234375 -16.96875 1.445312 -17.394531 2.5625 -17.375 C 3.6875 -17.351562 4.546875 -16.90625 5.140625 -16.03125 C 5.546875 -15.414062 5.722656 -14.757812 5.671875 -14.0625 C 5.628906 -13.363281 5.359375 -12.722656 4.859375 -12.140625 C 5.679688 -12.472656 6.484375 -12.515625 7.265625 -12.265625 C 8.054688 -12.023438 8.707031 -11.523438 9.21875 -10.765625 C 9.875 -9.785156 9.988281 -8.734375 9.5625 -7.609375 C 9.144531 -6.492188 8.25 -5.484375 6.875 -4.578125 L 1.171875 -0.78125 Z M -2.140625 -12.125 L -0.546875 -9.734375 L 1.84375 -11.328125 C 2.28125 -11.617188 2.550781 -11.957031 2.65625 -12.34375 C 2.769531 -12.726562 2.707031 -13.101562 2.46875 -13.46875 C 2.21875 -13.832031 1.894531 -14.035156 1.5 -14.078125 C 1.101562 -14.128906 0.6875 -14.007812 0.25 -13.71875 Z M 0.875 -7.59375 L 2.59375 -5.015625 L 4.984375 -6.609375 C 5.546875 -6.972656 5.90625 -7.378906 6.0625 -7.828125 C 6.21875 -8.273438 6.160156 -8.703125 5.890625 -9.109375 C 5.628906 -9.492188 5.265625 -9.691406 4.796875 -9.703125 C 4.335938 -9.722656 3.828125 -9.550781 3.265625 -9.1875 Z M 0.875 -7.59375 "/></g></g></g><g fill="#04383f" fill-opacity="1"><g transform="translate(157.977935, 126.058643)"><g><path d="M -3.28125 -13.6875 L 2.390625 -15.671875 C 4.472656 -16.390625 6.375 -16.363281 8.09375 -15.59375 C 9.820312 -14.832031 11.03125 -13.46875 11.71875 -11.5 C 12.40625 -9.550781 12.300781 -7.734375 11.40625 -6.046875 C 10.507812 -4.359375 9 -3.144531 6.875 -2.40625 L 1.328125 -0.46875 Z M 1 -12.15625 L 3.734375 -4.3125 L 6.140625 -5.15625 C 7.171875 -5.519531 7.890625 -6.175781 8.296875 -7.125 C 8.710938 -8.082031 8.71875 -9.132812 8.3125 -10.28125 C 7.90625 -11.4375 7.226562 -12.265625 6.28125 -12.765625 C 5.34375 -13.265625 4.335938 -13.328125 3.265625 -12.953125 Z M 1 -12.15625 "/></g></g></g><g fill="#04383f" fill-opacity="1"><g transform="translate(174.653313, 120.646298)"><g><path d="M 11.296875 -12.265625 L 3.921875 -11.609375 L 4.1875 -8.84375 L 10.84375 -9.4375 L 11.09375 -6.65625 L 4.4375 -6.0625 L 4.6875 -3.234375 L 12.28125 -3.90625 L 12.53125 -1.125 L 1.40625 -0.125 L 0.140625 -14.0625 L 11.046875 -15.046875 Z M 11.296875 -12.265625 "/></g></g></g><g fill="#04383f" fill-opacity="1"><g transform="translate(190.284337, 119.370438)"><g><path d="M 14.140625 2.25 L 11.046875 1.765625 L 6.03125 -7.765625 L 4.671875 0.75 L 1.390625 0.21875 L 3.59375 -13.609375 L 6.6875 -13.109375 L 11.703125 -3.5625 L 13.0625 -12.09375 L 16.34375 -11.578125 Z M 14.140625 2.25 "/></g></g></g><g fill="#04383f" fill-opacity="1"><g transform="translate(207.920783, 122.666191)"><g><path d="M 15.46875 -5.578125 L 11.578125 -7.21875 L 7.265625 3.046875 L 3.96875 1.671875 L 8.28125 -8.59375 L 4.4375 -10.21875 L 5.5625 -12.875 L 16.59375 -8.234375 Z M 15.46875 -5.578125 "/></g></g></g><g fill="#04383f" fill-opacity="1"><g transform="translate(221.254147, 128.361606)"><g><path d="M 10.140625 4.28125 L 5.21875 0.640625 L 2.859375 2.109375 L -0.078125 -0.0625 L 13.09375 -7.734375 L 16.03125 -5.5625 L 12.46875 9.203125 L 9.421875 6.953125 Z M 10.90625 1.484375 L 12.359375 -3.859375 L 7.671875 -0.90625 Z M 10.90625 1.484375 "/></g></g></g><g fill="#04383f" fill-opacity="1"><g transform="translate(235.174507, 139.261285)"><g><path d="M 5.484375 1.84375 L 9.34375 6.375 L 7.0625 8.3125 L 0.90625 1.078125 L 11.578125 -7.984375 L 13.875 -5.28125 Z M 5.484375 1.84375 "/></g></g></g><g fill="#04383f" fill-opacity="1"><g transform="translate(124.328653, 236.596112)"><g><path d="M 9.296875 -6.421875 L 12.375 -3.015625 C 13.5 -1.773438 14.035156 -0.394531 13.984375 1.125 C 13.929688 2.644531 13.304688 3.945312 12.109375 5.03125 C 10.910156 6.125 9.546875 6.617188 8.015625 6.515625 C 6.492188 6.410156 5.164062 5.726562 4.03125 4.46875 L 0.984375 1.09375 Z M 9.296875 -3.875 L 3.515625 1.359375 L 5.359375 3.390625 C 6.097656 4.210938 6.984375 4.648438 8.015625 4.703125 C 9.046875 4.753906 9.976562 4.398438 10.8125 3.640625 C 11.65625 2.890625 12.097656 1.984375 12.140625 0.921875 C 12.179688 -0.128906 11.832031 -1.070312 11.09375 -1.90625 Z M 9.296875 -3.875 "/></g></g></g><g fill="#04383f" fill-opacity="1"><g transform="translate(134.260496, 247.197385)"><g><path d="M 13.3125 -1.609375 L 8.515625 -5.390625 L 6.640625 -3.015625 L 10.9375 0.359375 L 9.890625 1.6875 L 5.59375 -1.6875 L 3.6875 0.734375 L 8.640625 4.625 L 7.59375 5.96875 L 1.15625 0.90625 L 8.078125 -7.90625 L 14.359375 -2.953125 Z M 13.3125 -1.609375 "/></g></g></g><g fill="#04383f" fill-opacity="1"><g transform="translate(144.259582, 254.941082)"><g><path d="M 9.84375 5.3125 L 8.203125 4.421875 L 6.765625 -5.46875 L 2.953125 1.59375 L 1.296875 0.703125 L 6.609375 -9.15625 L 8.234375 -8.28125 L 9.703125 1.640625 L 13.515625 -5.4375 L 15.15625 -4.546875 Z M 9.84375 5.3125 "/></g></g></g><g fill="#04383f" fill-opacity="1"><g transform="translate(157.394294, 261.672367)"><g><path d="M 11.71875 -6.015625 L 8.359375 -7.171875 L 5.265625 1.8125 L 3.484375 1.203125 L 6.578125 -7.78125 L 3.234375 -8.9375 L 3.78125 -10.546875 L 12.265625 -7.625 Z M 11.71875 -6.015625 "/></g></g></g><g fill="#04383f" fill-opacity="1"><g transform="translate(168.133676, 265.297668)"><g><path d="M 9.015625 -1 L 3.453125 -1.96875 L 1.953125 0.34375 L 0.015625 0 L 6.8125 -10.171875 L 8.71875 -9.84375 L 11.625 2.03125 L 9.640625 1.6875 Z M 8.578125 -2.765625 L 7.359375 -8.03125 L 4.421875 -3.484375 Z M 8.578125 -2.765625 "/></g></g></g><g fill="#04383f" fill-opacity="1"><g transform="translate(181.807445, 267.409553)"><g><path d="M 3.390625 -1.65625 L 8.234375 -1.546875 L 8.203125 0.171875 L 1.46875 0.03125 L 1.703125 -11.171875 L 3.59375 -11.140625 Z M 3.390625 -1.65625 "/></g></g></g><g fill="#04383f" fill-opacity="1"><g transform="translate(192.094982, 267.422097)"><g/></g></g><g fill="#04383f" fill-opacity="1"><g transform="translate(198.069003, 267.038441)"><g><path d="M 4.078125 -12.3125 C 4.835938 -12.457031 5.617188 -12.457031 6.421875 -12.3125 C 7.222656 -12.164062 7.941406 -11.875 8.578125 -11.4375 L 7.78125 -9.875 C 7.300781 -10.226562 6.765625 -10.472656 6.171875 -10.609375 C 5.578125 -10.753906 5.003906 -10.769531 4.453125 -10.65625 C 3.347656 -10.4375 2.492188 -9.875 1.890625 -8.96875 C 1.285156 -8.070312 1.09375 -7.082031 1.3125 -6 C 1.53125 -4.914062 2.09375 -4.078125 3 -3.484375 C 3.90625 -2.898438 4.910156 -2.71875 6.015625 -2.9375 C 7.148438 -3.164062 8.078125 -3.800781 8.796875 -4.84375 L 10.140625 -3.859375 C 9.703125 -3.179688 9.132812 -2.601562 8.4375 -2.125 C 7.738281 -1.644531 7.015625 -1.332031 6.265625 -1.1875 C 4.648438 -0.863281 3.179688 -1.125 1.859375 -1.96875 C 0.546875 -2.820312 -0.265625 -4.035156 -0.578125 -5.609375 C -0.890625 -7.171875 -0.597656 -8.59375 0.296875 -9.875 C 1.191406 -11.164062 2.453125 -11.976562 4.078125 -12.3125 Z M 4.078125 -12.3125 "/></g></g></g><g fill="#04383f" fill-opacity="1"><g transform="translate(210.914335, 264.191975)"><g><path d="M 2.578125 -2.75 L 7.140625 -4.40625 L 7.71875 -2.796875 L 1.375 -0.5 L -2.4375 -11.03125 L -0.65625 -11.671875 Z M 2.578125 -2.75 "/></g></g></g><g fill="#04383f" fill-opacity="1"><g transform="translate(220.544108, 260.499008)"><g><path d="M 3.015625 -1.46875 L 1.3125 -0.640625 L -3.59375 -10.703125 L -1.890625 -11.53125 Z M 3.015625 -1.46875 "/></g></g></g><g fill="#04383f" fill-opacity="1"><g transform="translate(226.694499, 257.648079)"><g><path d="M 9.3125 -6.203125 L 7.765625 -5.171875 L -1.65625 -8.546875 L 2.796875 -1.859375 L 1.21875 -0.8125 L -4.984375 -10.140625 L -3.4375 -11.171875 L 6.015625 -7.796875 L 1.5625 -14.5 L 3.109375 -15.53125 Z M 9.3125 -6.203125 "/></g></g></g><g fill="#04383f" fill-opacity="1"><g transform="translate(238.615619, 249.242819)"><g><path d="M 2.515625 -2.21875 L 1.109375 -0.96875 L -6.28125 -9.390625 L -4.875 -10.640625 Z M 2.515625 -2.21875 "/></g></g></g><g fill="#04383f" fill-opacity="1"><g transform="translate(243.711617, 244.868382)"><g><path d="M -4.125 -12.28125 C -3.613281 -12.863281 -2.992188 -13.335938 -2.265625 -13.703125 C -1.535156 -14.078125 -0.785156 -14.273438 -0.015625 -14.296875 L 0.265625 -12.5625 C -0.328125 -12.550781 -0.898438 -12.421875 -1.453125 -12.171875 C -2.015625 -11.929688 -2.484375 -11.601562 -2.859375 -11.1875 C -3.609375 -10.34375 -3.953125 -9.378906 -3.890625 -8.296875 C -3.828125 -7.210938 -3.382812 -6.304688 -2.5625 -5.578125 C -1.738281 -4.847656 -0.789062 -4.519531 0.28125 -4.59375 C 1.363281 -4.664062 2.28125 -5.125 3.03125 -5.96875 C 3.800781 -6.832031 4.160156 -7.894531 4.109375 -9.15625 L 5.796875 -9.171875 C 5.835938 -8.367188 5.722656 -7.566406 5.453125 -6.765625 C 5.191406 -5.972656 4.804688 -5.289062 4.296875 -4.71875 C 3.203125 -3.488281 1.875 -2.816406 0.3125 -2.703125 C -1.25 -2.585938 -2.628906 -3.0625 -3.828125 -4.125 C -5.023438 -5.1875 -5.648438 -6.5 -5.703125 -8.0625 C -5.753906 -9.632812 -5.226562 -11.039062 -4.125 -12.28125 Z M -4.125 -12.28125 "/></g></g></g><path fill="#00c0f3" d="M 172.652344 197.179688 C 197.417969 197.179688 217.496094 183.265625 217.496094 166.097656 C 217.496094 155.851562 210.339844 146.761719 199.308594 141.101562 C 199.308594 141.101562 209.335938 148.46875 211.574219 159.035156 C 211.132812 158.769531 210.679688 158.550781 210.214844 158.378906 C 208.261719 157.671875 206.097656 157.859375 204.222656 158.757812 C 199.238281 161.136719 184.925781 167.351562 174.628906 165.65625 C 174.628906 165.65625 183.386719 165.0625 193.652344 160.085938 C 191.476562 160.394531 189.089844 160.609375 186.464844 160.609375 C 169.128906 160.609375 164.277344 152.777344 156.023438 168.003906 C 151.421875 176.5 152.210938 187.234375 154.910156 194.648438 C 160.351562 196.277344 166.351562 197.179688 172.652344 197.179688 " fill-opacity="1" fill-rule="nonzero"/><path fill="#145da0" d="M 208.207031 203.304688 C 198.707031 206.367188 189.238281 207.039062 180.972656 205.6875 C 187.320312 205.8125 194.117188 204.847656 200.929688 202.652344 C 224.503906 195.054688 239.34375 175.65625 234.078125 159.316406 C 232.917969 155.707031 230.867188 152.550781 228.132812 149.902344 C 236.714844 163.921875 227.234375 180.6875 212.554688 189.863281 C 203.8125 195.324219 192.527344 200.035156 179.378906 200.035156 C 170.417969 200.035156 162.070312 198.203125 155.066406 195.0625 C 155.765625 196.898438 156.578125 198.515625 157.453125 199.828125 C 160.691406 204.675781 161.714844 209.808594 162.863281 214.964844 C 164.359375 221.691406 166.074219 228.46875 173.203125 234.734375 C 188.785156 248.433594 165.78125 213.507812 186.464844 213.507812 C 207.144531 213.507812 185.230469 249.582031 199.722656 234.734375 C 213.234375 220.894531 210.097656 211.09375 215.152344 200.621094 C 212.933594 201.628906 210.617188 202.527344 208.207031 203.304688 " fill-opacity="1" fill-rule="nonzero"/><g clip-path="url(#d3059951b3)"><path fill="#145da0" d="M 197.046875 137.359375 C 187.554688 138.710938 186.460938 139.804688 185.109375 149.292969 C 183.761719 139.804688 182.664062 138.710938 173.175781 137.359375 C 182.664062 136.007812 183.761719 134.914062 185.109375 125.421875 C 186.460938 134.914062 187.554688 136.007812 197.046875 137.359375 " fill-opacity="1" fill-rule="nonzero"/></g><path fill="#145da0" d="M 222.769531 142.632812 C 218.574219 143.230469 218.089844 143.714844 217.496094 147.90625 C 216.898438 143.714844 216.414062 143.230469 212.21875 142.632812 C 216.414062 142.035156 216.898438 141.554688 217.496094 137.359375 C 218.089844 141.554688 218.574219 142.035156 222.769531 142.632812 " fill-opacity="1" fill-rule="nonzero"/></svg>