<svg xmlns="http://www.w3.org/2000/svg" xmlns:xlink="http://www.w3.org/1999/xlink" width="500" zoomAndPan="magnify" viewBox="0 0 375 374.999991" height="500" preserveAspectRatio="xMidYMid meet" version="1.0"><defs><g/><clipPath id="c7c6f7e6a5"><path d="M 17.804688 11.148438 L 363.851562 11.148438 L 363.851562 357.195312 L 17.804688 357.195312 Z M 17.804688 11.148438 " clip-rule="nonzero"/></clipPath><clipPath id="40af276135"><path d="M 190.828125 357.195312 C 144.632812 357.195312 101.136719 339.214844 68.496094 306.503906 C 35.785156 273.863281 17.804688 230.367188 17.804688 184.171875 C 17.804688 137.976562 35.785156 94.476562 68.496094 61.835938 C 101.136719 29.128906 144.632812 11.148438 190.828125 11.148438 C 237.023438 11.148438 280.523438 29.128906 313.164062 61.835938 C 345.871094 94.546875 363.851562 137.976562 363.851562 184.171875 C 363.851562 230.367188 345.871094 273.863281 313.164062 306.503906 C 280.523438 339.214844 237.023438 357.195312 190.828125 357.195312 Z M 190.828125 21.519531 C 147.398438 21.519531 106.53125 38.464844 75.824219 69.167969 C 45.121094 99.871094 28.175781 140.742188 28.175781 184.171875 C 28.175781 227.601562 45.121094 268.46875 75.824219 299.175781 C 106.53125 329.878906 147.398438 346.824219 190.828125 346.824219 C 234.257812 346.824219 275.128906 329.878906 305.832031 299.175781 C 336.535156 268.46875 353.480469 227.601562 353.480469 184.171875 C 353.480469 140.742188 336.535156 99.871094 305.832031 69.167969 C 275.128906 38.464844 234.257812 21.519531 190.828125 21.519531 Z M 190.828125 21.519531 " clip-rule="nonzero"/></clipPath><clipPath id="1f79bf66ef"><path d="M 62.453125 184.171875 L 82.765625 184.171875 L 82.765625 204.484375 L 62.453125 204.484375 Z M 62.453125 184.171875 " clip-rule="nonzero"/></clipPath><clipPath id="dfe35a871a"><path d="M 72.609375 184.171875 C 67 184.171875 62.453125 188.71875 62.453125 194.328125 C 62.453125 199.9375 67 204.484375 72.609375 204.484375 C 78.21875 204.484375 82.765625 199.9375 82.765625 194.328125 C 82.765625 188.71875 78.21875 184.171875 72.609375 184.171875 Z M 72.609375 184.171875 " clip-rule="nonzero"/></clipPath><clipPath id="891bf495ce"><path d="M 306.597656 177.90625 L 325.785156 177.90625 L 325.785156 197.09375 L 306.597656 197.09375 Z M 306.597656 177.90625 " clip-rule="nonzero"/></clipPath><clipPath id="80c555b769"><path d="M 316.191406 177.90625 C 310.894531 177.90625 306.597656 182.203125 306.597656 187.5 C 306.597656 192.796875 310.894531 197.09375 316.191406 197.09375 C 321.488281 197.09375 325.785156 192.796875 325.785156 187.5 C 325.785156 182.203125 321.488281 177.90625 316.191406 177.90625 Z M 316.191406 177.90625 " clip-rule="nonzero"/></clipPath><clipPath id="ef8a3e8c9d"><path d="M 174 108.316406 L 205 108.316406 L 205 139 L 174 139 Z M 174 108.316406 " clip-rule="nonzero"/></clipPath></defs><g clip-path="url(#c7c6f7e6a5)"><g clip-path="url(#40af276135)"><path fill="#ffffff" d="M 17.804688 11.148438 L 363.851562 11.148438 L 363.851562 357.195312 L 17.804688 357.195312 Z M 17.804688 11.148438 " fill-opacity="1" fill-rule="nonzero"/></g></g><g clip-path="url(#1f79bf66ef)"><g clip-path="url(#dfe35a871a)"><path fill="#ffffff" d="M 62.453125 184.171875 L 82.765625 184.171875 L 82.765625 204.484375 L 62.453125 204.484375 Z M 62.453125 184.171875 " fill-opacity="1" fill-rule="nonzero"/></g></g><g clip-path="url(#891bf495ce)"><g clip-path="url(#80c555b769)"><path fill="#ffffff" d="M 306.597656 177.90625 L 325.785156 177.90625 L 325.785156 197.09375 L 306.597656 197.09375 Z M 306.597656 177.90625 " fill-opacity="1" fill-rule="nonzero"/></g></g><g fill="#ffffff" fill-opacity="1"><g transform="translate(106.853074, 109.674441)"><g><path d="M 7.9375 -14.703125 L 1.734375 -7.796875 L 3.609375 -4.015625 L -0.109375 0.109375 L -9.765625 -20.90625 L -6.0625 -25.03125 L 15.71875 -17.484375 L 11.859375 -13.203125 Z M 3.84375 -16.265625 L -4.046875 -19.25 L -0.25 -11.703125 Z M 3.84375 -16.265625 "/></g></g></g><g fill="#ffffff" fill-opacity="1"><g transform="translate(125.045652, 90.213182)"><g><path d="M -10 -18.859375 L -1.625 -24.421875 C 0.351562 -25.742188 2.191406 -26.394531 3.890625 -26.375 C 5.597656 -26.351562 6.898438 -25.671875 7.796875 -24.328125 C 8.410156 -23.398438 8.679688 -22.40625 8.609375 -21.34375 C 8.546875 -20.289062 8.128906 -19.3125 7.359375 -18.40625 C 8.617188 -18.9375 9.84375 -19.015625 11.03125 -18.640625 C 12.21875 -18.265625 13.191406 -17.503906 13.953125 -16.359375 C 14.953125 -14.859375 15.132812 -13.257812 14.5 -11.5625 C 13.875 -9.875 12.519531 -8.332031 10.4375 -6.9375 L 1.765625 -1.171875 Z M -3.21875 -18.40625 L -0.8125 -14.765625 L 2.8125 -17.171875 C 3.46875 -17.609375 3.878906 -18.117188 4.046875 -18.703125 C 4.222656 -19.296875 4.117188 -19.878906 3.734375 -20.453125 C 3.367188 -21.003906 2.882812 -21.3125 2.28125 -21.375 C 1.6875 -21.4375 1.0625 -21.25 0.40625 -20.8125 Z M 1.34375 -11.53125 L 3.953125 -7.609375 L 7.578125 -10.015625 C 8.421875 -10.578125 8.960938 -11.195312 9.203125 -11.875 C 9.441406 -12.5625 9.359375 -13.210938 8.953125 -13.828125 C 8.554688 -14.410156 8.003906 -14.710938 7.296875 -14.734375 C 6.585938 -14.765625 5.8125 -14.5 4.96875 -13.9375 Z M 1.34375 -11.53125 "/></g></g></g><g fill="#ffffff" fill-opacity="1"><g transform="translate(146.033906, 76.634711)"><g><path d="M -5 -20.75 L 3.625 -23.75 C 6.78125 -24.851562 9.664062 -24.820312 12.28125 -23.65625 C 14.90625 -22.5 16.738281 -20.429688 17.78125 -17.453125 C 18.8125 -14.492188 18.648438 -11.734375 17.296875 -9.171875 C 15.941406 -6.609375 13.65625 -4.765625 10.4375 -3.640625 L 2 -0.703125 Z M 1.53125 -18.46875 L 5.6875 -6.5625 L 9.3125 -7.828125 C 10.875 -8.367188 11.96875 -9.359375 12.59375 -10.796875 C 13.21875 -12.242188 13.222656 -13.84375 12.609375 -15.59375 C 11.992188 -17.351562 10.96875 -18.609375 9.53125 -19.359375 C 8.09375 -20.117188 6.5625 -20.21875 4.9375 -19.65625 Z M 1.53125 -18.46875 "/></g></g></g><g fill="#ffffff" fill-opacity="1"><g transform="translate(171.335882, 68.422422)"><g><path d="M 17.140625 -18.625 L 5.96875 -17.609375 L 6.34375 -13.40625 L 16.421875 -14.328125 L 16.8125 -10.09375 L 6.734375 -9.171875 L 7.125 -4.90625 L 18.640625 -5.953125 L 19.015625 -1.71875 L 2.109375 -0.1875 L 0.203125 -21.328125 L 16.765625 -22.828125 Z M 17.140625 -18.625 "/></g></g></g><g fill="#ffffff" fill-opacity="1"><g transform="translate(195.053221, 66.486531)"><g><path d="M 21.453125 3.421875 L 16.75 2.671875 L 9.15625 -11.796875 L 7.09375 1.125 L 2.09375 0.328125 L 5.4375 -20.640625 L 10.140625 -19.890625 L 17.765625 -5.40625 L 19.828125 -18.34375 L 24.796875 -17.546875 Z M 21.453125 3.421875 "/></g></g></g><g fill="#ffffff" fill-opacity="1"><g transform="translate(221.813442, 71.487252)"><g><path d="M 23.46875 -8.46875 L 17.5625 -10.953125 L 11.015625 4.625 L 6.03125 2.53125 L 12.578125 -13.046875 L 6.75 -15.5 L 8.4375 -19.53125 L 25.15625 -12.5 Z M 23.46875 -8.46875 "/></g></g></g><g fill="#ffffff" fill-opacity="1"><g transform="translate(242.044488, 80.12905)"><g><path d="M 15.390625 6.484375 L 7.921875 0.96875 L 4.34375 3.203125 L -0.125 -0.09375 L 19.859375 -11.734375 L 24.328125 -8.453125 L 18.921875 13.96875 L 14.28125 10.53125 Z M 16.5625 2.25 L 18.78125 -5.875 L 11.625 -1.390625 Z M 16.5625 2.25 "/></g></g></g><g fill="#ffffff" fill-opacity="1"><g transform="translate(263.166174, 96.667425)"><g><path d="M 8.3125 2.8125 L 14.140625 9.671875 L 10.703125 12.59375 L 1.375 1.625 L 17.5625 -12.125 L 21.0625 -8.015625 Z M 8.3125 2.8125 "/></g></g></g><g fill="#ffffff" fill-opacity="1"><g transform="translate(88.045882, 265.588922)"><g><path d="M 14.625 -10.09375 L 19.484375 -4.734375 C 21.242188 -2.773438 22.082031 -0.601562 22 1.78125 C 21.914062 4.175781 20.925781 6.226562 19.03125 7.9375 C 17.144531 9.644531 15.003906 10.414062 12.609375 10.25 C 10.222656 10.082031 8.132812 9.007812 6.34375 7.03125 L 1.546875 1.71875 Z M 14.65625 -6.09375 L 5.53125 2.140625 L 8.4375 5.34375 C 9.59375 6.625 10.984375 7.304688 12.609375 7.390625 C 14.234375 7.472656 15.703125 6.921875 17.015625 5.734375 C 18.335938 4.546875 19.035156 3.117188 19.109375 1.453125 C 19.191406 -0.210938 18.648438 -1.691406 17.484375 -2.984375 Z M 14.65625 -6.09375 "/></g></g></g><g fill="#ffffff" fill-opacity="1"><g transform="translate(103.682108, 282.279099)"><g><path d="M 20.96875 -2.546875 L 13.40625 -8.484375 L 10.46875 -4.734375 L 17.25 0.578125 L 15.59375 2.671875 L 8.8125 -2.640625 L 5.8125 1.1875 L 13.625 7.3125 L 11.96875 9.40625 L 1.8125 1.421875 L 12.703125 -12.4375 L 22.609375 -4.640625 Z M 20.96875 -2.546875 "/></g></g></g><g fill="#ffffff" fill-opacity="1"><g transform="translate(119.424242, 294.47041)"><g><path d="M 15.5 8.359375 L 12.921875 6.96875 L 10.65625 -8.609375 L 4.65625 2.515625 L 2.03125 1.09375 L 10.390625 -14.421875 L 12.96875 -13.03125 L 15.28125 2.59375 L 21.28125 -8.546875 L 23.859375 -7.15625 Z M 15.5 8.359375 "/></g></g></g><g fill="#ffffff" fill-opacity="1"><g transform="translate(140.102945, 305.067866)"><g><path d="M 18.4375 -9.484375 L 13.15625 -11.3125 L 8.296875 2.84375 L 5.484375 1.890625 L 10.34375 -12.265625 L 5.078125 -14.078125 L 5.953125 -16.59375 L 19.3125 -12 Z M 18.4375 -9.484375 "/></g></g></g><g fill="#ffffff" fill-opacity="1"><g transform="translate(157.010531, 310.775344)"><g><path d="M 14.1875 -1.5625 L 5.421875 -3.09375 L 3.078125 0.546875 L 0.03125 0 L 10.734375 -16.015625 L 13.75 -15.484375 L 18.28125 3.203125 L 15.15625 2.65625 Z M 13.515625 -4.359375 L 11.609375 -12.640625 L 6.96875 -5.515625 Z M 13.515625 -4.359375 "/></g></g></g><g fill="#ffffff" fill-opacity="1"><g transform="translate(178.537889, 314.100187)"><g><path d="M 5.359375 -2.578125 L 12.984375 -2.421875 L 12.921875 0.265625 L 2.3125 0.046875 L 2.671875 -17.578125 L 5.65625 -17.515625 Z M 5.359375 -2.578125 "/></g></g></g><g fill="#ffffff" fill-opacity="1"><g transform="translate(194.734131, 314.119914)"><g/></g></g><g fill="#ffffff" fill-opacity="1"><g transform="translate(204.139367, 313.515931)"><g><path d="M 6.421875 -19.359375 C 7.640625 -19.609375 8.875 -19.613281 10.125 -19.375 C 11.382812 -19.132812 12.519531 -18.679688 13.53125 -18.015625 L 12.25 -15.5625 C 11.476562 -16.101562 10.625 -16.484375 9.6875 -16.703125 C 8.757812 -16.929688 7.859375 -16.957031 6.984375 -16.78125 C 5.253906 -16.425781 3.910156 -15.535156 2.953125 -14.109375 C 2.003906 -12.691406 1.703125 -11.140625 2.046875 -9.453125 C 2.390625 -7.742188 3.273438 -6.421875 4.703125 -5.484375 C 6.140625 -4.546875 7.722656 -4.253906 9.453125 -4.609375 C 11.253906 -4.972656 12.722656 -5.976562 13.859375 -7.625 L 15.96875 -6.03125 C 15.25 -4.988281 14.347656 -4.09375 13.265625 -3.34375 C 12.191406 -2.59375 11.054688 -2.097656 9.859375 -1.859375 C 7.316406 -1.347656 5.007812 -1.757812 2.9375 -3.09375 C 0.875 -4.4375 -0.40625 -6.351562 -0.90625 -8.84375 C -1.40625 -11.289062 -0.945312 -13.523438 0.46875 -15.546875 C 1.882812 -17.578125 3.867188 -18.847656 6.421875 -19.359375 Z M 6.421875 -19.359375 "/></g></g></g><g fill="#ffffff" fill-opacity="1"><g transform="translate(224.362458, 309.034643)"><g><path d="M 4.0625 -4.34375 L 11.21875 -6.9375 L 12.140625 -4.40625 L 2.171875 -0.78125 L -3.828125 -17.34375 L -1.015625 -18.375 Z M 4.0625 -4.34375 "/></g></g></g><g fill="#ffffff" fill-opacity="1"><g transform="translate(239.52316, 303.220575)"><g><path d="M 4.765625 -2.328125 L 2.078125 -1.015625 L -5.640625 -16.859375 L -2.953125 -18.171875 Z M 4.765625 -2.328125 "/></g></g></g><g fill="#ffffff" fill-opacity="1"><g transform="translate(249.20608, 298.732186)"><g><path d="M 14.65625 -9.765625 L 12.21875 -8.140625 L -2.59375 -13.453125 L 4.40625 -2.9375 L 1.921875 -1.28125 L -7.84375 -15.953125 L -5.40625 -17.578125 L 9.46875 -12.28125 L 2.453125 -22.8125 L 4.890625 -24.4375 Z M 14.65625 -9.765625 "/></g></g></g><g fill="#ffffff" fill-opacity="1"><g transform="translate(267.974117, 285.499316)"><g><path d="M 3.984375 -3.5 L 1.734375 -1.53125 L -9.90625 -14.765625 L -7.65625 -16.734375 Z M 3.984375 -3.5 "/></g></g></g><g fill="#ffffff" fill-opacity="1"><g transform="translate(275.997049, 278.612398)"><g><path d="M -6.515625 -19.3125 C -5.691406 -20.238281 -4.703125 -20.988281 -3.546875 -21.5625 C -2.398438 -22.132812 -1.226562 -22.457031 -0.03125 -22.53125 L 0.421875 -19.796875 C -0.515625 -19.773438 -1.421875 -19.570312 -2.296875 -19.1875 C -3.179688 -18.800781 -3.921875 -18.273438 -4.515625 -17.609375 C -5.679688 -16.285156 -6.21875 -14.769531 -6.125 -13.0625 C -6.03125 -11.351562 -5.335938 -9.925781 -4.046875 -8.78125 C -2.742188 -7.625 -1.238281 -7.097656 0.46875 -7.203125 C 2.175781 -7.316406 3.613281 -8.035156 4.78125 -9.359375 C 6 -10.722656 6.5625 -12.410156 6.46875 -14.421875 L 9.125 -14.4375 C 9.175781 -13.164062 8.992188 -11.90625 8.578125 -10.65625 C 8.171875 -9.40625 7.5625 -8.328125 6.75 -7.421875 C 5.03125 -5.484375 2.941406 -4.425781 0.484375 -4.25 C -1.960938 -4.070312 -4.132812 -4.828125 -6.03125 -6.515625 C -7.90625 -8.171875 -8.882812 -10.234375 -8.96875 -12.703125 C -9.0625 -15.171875 -8.242188 -17.375 -6.515625 -19.3125 Z M -6.515625 -19.3125 "/></g></g></g><path fill="#ffffff" d="M 173.570312 199.835938 C 205.125 199.835938 230.707031 182.105469 230.707031 160.230469 C 230.707031 147.175781 221.589844 135.597656 207.53125 128.382812 C 207.53125 128.382812 220.308594 137.773438 223.164062 151.234375 C 222.601562 150.894531 222.023438 150.617188 221.429688 150.398438 C 218.945312 149.496094 216.183594 149.738281 213.792969 150.878906 C 207.445312 153.910156 189.210938 161.828125 176.089844 159.671875 C 176.089844 159.671875 187.246094 158.914062 200.328125 152.570312 C 197.554688 152.96875 194.515625 153.242188 191.167969 153.242188 C 169.082031 153.242188 162.898438 143.257812 152.382812 162.660156 C 146.519531 173.484375 147.523438 187.164062 150.964844 196.609375 C 157.898438 198.683594 165.539062 199.835938 173.570312 199.835938 " fill-opacity="1" fill-rule="nonzero"/><path fill="#145da0" d="M 218.875 207.640625 C 206.765625 211.542969 194.703125 212.402344 184.171875 210.675781 C 192.261719 210.835938 200.921875 209.605469 209.601562 206.808594 C 239.636719 197.132812 258.546875 172.410156 251.839844 151.589844 C 250.355469 146.992188 247.746094 142.972656 244.257812 139.597656 C 255.195312 157.460938 243.117188 178.824219 224.414062 190.511719 C 213.269531 197.472656 198.894531 203.472656 182.144531 203.472656 C 170.722656 203.472656 160.089844 201.140625 151.164062 197.140625 C 152.050781 199.476562 153.085938 201.539062 154.203125 203.210938 C 158.332031 209.386719 159.632812 215.925781 161.097656 222.5 C 163.003906 231.066406 165.1875 239.703125 174.273438 247.6875 C 194.125 265.140625 164.816406 220.640625 191.167969 220.640625 C 217.519531 220.640625 189.597656 266.605469 208.0625 247.6875 C 225.277344 230.054688 221.28125 217.5625 227.71875 204.21875 C 224.898438 205.503906 221.945312 206.652344 218.875 207.640625 " fill-opacity="1" fill-rule="nonzero"/><g clip-path="url(#ef8a3e8c9d)"><path fill="#145da0" d="M 204.652344 123.613281 C 192.558594 125.335938 191.164062 126.730469 189.445312 138.824219 C 187.722656 126.730469 186.328125 125.335938 174.234375 123.613281 C 186.328125 121.894531 187.722656 120.5 189.445312 108.40625 C 191.164062 120.5 192.558594 121.894531 204.652344 123.613281 " fill-opacity="1" fill-rule="nonzero"/></g><path fill="#145da0" d="M 237.425781 130.335938 C 232.082031 131.097656 231.46875 131.710938 230.707031 137.054688 C 229.945312 131.710938 229.328125 131.097656 223.984375 130.335938 C 229.328125 129.574219 229.945312 128.960938 230.707031 123.613281 C 231.46875 128.960938 232.082031 129.574219 237.425781 130.335938 " fill-opacity="1" fill-rule="nonzero"/></svg>